<svg width="60" height="60" viewBox="0 0 60 60" fill="none" xmlns="http://www.w3.org/2000/svg">
<rect width="60" height="60" fill="black"/>
<path d="M29.4375 25.0125V20.4H24.7875V18.15H29.4375V13.5375H31.6875V18.15H36.3V20.4H31.6875V25.0125H29.4375ZM22.8671 45C22.1224 45 21.4875 44.7348 20.9625 44.2045C20.4375 43.6742 20.175 43.0367 20.175 42.292C20.175 41.5473 20.4402 40.9125 20.9705 40.3875C21.5008 39.8625 22.1383 39.6 22.883 39.6C23.6277 39.6 24.2625 39.8651 24.7875 40.3954C25.3125 40.9258 25.575 41.5633 25.575 42.3079C25.575 43.0526 25.3099 43.6875 24.7796 44.2125C24.2492 44.7375 23.6117 45 22.8671 45ZM38.0171 45C37.2724 45 36.6375 44.7348 36.1125 44.2045C35.5875 43.6742 35.325 43.0367 35.325 42.292C35.325 41.5473 35.5902 40.9125 36.1205 40.3875C36.6508 39.8625 37.2883 39.6 38.033 39.6C38.7777 39.6 39.4125 39.8651 39.9375 40.3954C40.4625 40.9258 40.725 41.5633 40.725 42.3079C40.725 43.0526 40.4599 43.6875 39.9296 44.2125C39.3992 44.7375 38.7617 45 38.0171 45ZM22.875 37.2375C21.825 37.2375 21.0563 36.8125 20.5688 35.9625C20.0813 35.1125 20.0875 34.25 20.5875 33.375L22.875 29.2125L17.25 17.25H14.325V15H18.675L25.05 28.65H36L41.85 18.15L43.8 19.2L38.0625 29.5875C37.8285 30.0042 37.5199 30.3271 37.137 30.5562C36.754 30.7854 36.3 30.9 35.775 30.9H24.525L22.2 34.9875H40.725V37.2375H22.875Z" fill="white"/>
</svg>
